<svg version="1.1" viewBox="0.0 0.0 384.0 384.0" fill="none" stroke="none" stroke-linecap="square" stroke-miterlimit="10" xmlns:xlink="http://www.w3.org/1999/xlink" xmlns="http://www.w3.org/2000/svg"><clipPath id="p.0"><path d="m0 0l384.0 0l0 384.0l-384.0 0l0 -384.0z" clip-rule="nonzero"/></clipPath><g clip-path="url(#p.0)"><path fill="#000000" fill-opacity="0.0" d="m0 0l384.0 0l0 384.0l-384.0 0z" fill-rule="evenodd"/><path fill="#000000" d="m0 31.93344l0 0c0 -17.636353 14.297088 -31.93344 31.93344 -31.93344l320.13312 0c8.469269 0 16.591675 3.3644063 22.580353 9.353088c5.988678 5.988682 9.353088 14.111076 9.353088 22.58035l0 320.13312c0 17.636353 -14.297089 31.933441 -31.933441 31.933441l-320.13312 0c-17.636353 0 -31.93344 -14.297089 -31.93344 -31.933441z" fill-rule="evenodd"/><path fill="#ffb23d" d="m122.74183 67.20392l140.44043 0l0 33.08155l-140.44043 0z" fill-rule="evenodd"/><path fill="#6ff250" d="m290.88553 256.37225l-99.09349 0l29.027466 -28.811005l41.677963 0l0 -41.367157l28.388062 -28.176376z" fill-rule="evenodd"/><path fill="#ffb23d" d="m213.48146 229.51724l0 43.639435l0 0c0 24.10138 -27.036194 43.639404 -60.38704 43.639404c-33.350838 0 -60.38703 -19.538025 -60.38703 -43.639404l0 -43.639435z" fill-rule="evenodd"/><path fill="#000000" d="m170.97473 227.57036l0 32.754013l0 0c0 18.089539 -17.64264 32.75403 -39.40596 32.75403c-21.763313 0 -39.405968 -14.66449 -39.405968 -32.75403l0 -32.754013z" fill-rule="evenodd"/><path fill="#ffb23d" d="m233.48282 284.67554l0 0c0 -10.023254 8.112564 -18.148712 18.119904 -18.148712l0 0c4.8056946 0 9.414581 1.9121094 12.812714 5.3156433c3.3981323 3.403534 5.30719 8.019714 5.30719 12.833069l0 0c0 10.023254 -8.112549 18.148682 -18.119904 18.148682l0 0c-10.0073395 0 -18.119904 -8.125427 -18.119904 -18.148682z" fill-rule="evenodd"/><path fill="#6ff250" d="m92.4892 115.42133l99.093506 0l-29.027466 28.810997l-41.67797 0l0 41.367172l-28.38807 28.176361z" fill-rule="evenodd"/><path fill="#ffb23d" d="m213.48389 95.68956l0 153.08035l-41.055923 0l0 -153.08035z" fill-rule="evenodd"/><path fill="#6ff250" d="m93.45469 256.38272l144.3656 -140.9614l54.016907 0l-144.36559 140.9614z" fill-rule="evenodd"/></g></svg>